<svg class="h-6 md:h-8 text-red-600" viewBox="0 0 111 30" fill="currentColor" xmlns="http://www.w3.org/2000/svg">
    <path d="M105.062 14.288c0 16.5-9.42 22.5-23.111 22.5h-10.64V4.68h10.204c13.691 0 23.547 6 23.547 14.288zm-10.023 .227c0-5.742-3.41-8.91-9.34-8.91h-3.882V28.06h3.41c6.46 0 9.835-3.636 9.835-9.257V14.515zM80.09 4.68h-10.64v22.64h10.64V4.68zM64.205 14.288c0 16.5-9.42 22.5-23.111 22.5H30.45V4.68h10.204c13.691 0 23.55 6 23.55 14.288zm-10.023 .227c0-5.742-3.41-8.91-9.34-8.91h-3.882V28.06h3.41c6.46 0 9.835-3.636 9.835-9.257V14.515zM24.717 4.68H14.076v22.64h10.64V4.68zM0 4.68v22.64h10.64V4.68H0z"/>
</svg>
